<?xml version="1.0" encoding="UTF-8"?>
<svg xmlns="http://www.w3.org/2000/svg" id="Layer_3" data-name="Layer 3" viewBox="0 0 64 64" width="512" height="512"><path d="M59,19.734V17.466a6.108,6.108,0,0,0-.929-3.239A15.3,15.3,0,0,0,51,8.2V4a3,3,0,0,0-3-3H8A7.009,7.009,0,0,0,1,8V55a8.009,8.009,0,0,0,8,8H50a1,1,0,0,0,1-1V58a1,1,0,0,0-1-1H49V53h1a1,1,0,0,0,1-1V40a1,1,0,0,1,1-1h3a3,3,0,0,0,3-3V30h2.42a2.58,2.58,0,0,0,2.24-3.86ZM49,4V7.516A15.485,15.485,0,0,0,45.031,7a15.3,15.3,0,0,0-7.555,2H16a1,1,0,0,0-1,1V26a1,1,0,0,0,1,1H30.141a16.127,16.127,0,0,0,1.042,4H16a1,1,0,0,0-1,1V44a1,1,0,0,0,1,1H36v2H11V3H48A1,1,0,0,1,49,4ZM30,21.37V25H17V11H34.717a15.52,15.52,0,0,0-1.823,1.937A13.8,13.8,0,0,0,30,21.37ZM34.633,37a14.072,14.072,0,0,1,.767,2H19v2H35.846A13.8,13.8,0,0,1,36,43H17V33H32.161A15.976,15.976,0,0,0,33.2,34.6c.1.129.183.267.276.4H19v2ZM3,8A5.006,5.006,0,0,1,8,3H9V47a7.976,7.976,0,0,0-6,2.726ZM47,57H9a2,2,0,0,1,0-4H47Zm2-6H9a4,4,0,0,0,0,8H49v2H9A6,6,0,0,1,9,49H49ZM60.42,28H57a1,1,0,0,0-1,1v7a1,1,0,0,1-1,1H52a3,3,0,0,0-3,3v7H38V43a16.106,16.106,0,0,0-3.2-9.6A14.087,14.087,0,0,1,32,25V21.37a11.793,11.793,0,0,1,2.472-7.205,13.377,13.377,0,0,1,21.9,1.121A4.112,4.112,0,0,1,57,17.466V20a1,1,0,0,0,.132.5l3.793,6.638a.581.581,0,0,1-.5.866Z"/><path d="M45.707,13.293a1,1,0,0,0-1.414,0l-7,7A1,1,0,0,0,38,22h3V32a1,1,0,0,0,1,1h6a1,1,0,0,0,1-1V22h3a1,1,0,0,0,.707-1.707ZM48,20a1,1,0,0,0-1,1V31H43V21a1,1,0,0,0-1-1H40.414L45,15.414,49.586,20Z"/></svg>
