<svg height="569pt" viewBox="-85 0 569 569.286" width="569pt" xmlns="http://www.w3.org/2000/svg"><path d="m222.621094 0h-75.867188c-5.234375 0-9.480468 4.246094-9.480468 9.484375v201.359375l-45.863282-154.644531c-.617187-2.066407-1.914062-3.859375-3.679687-5.09375l-49.851563-34.679688c-2.375-1.625-5.347656-2.101562-8.109375-1.300781-2.761719.820312-5.003906 2.851562-6.089843 5.519531l-22.882813 56.238281c-.8085938 1.996094-.917969 4.210938-.300781 6.277344l54.082031 182.375h-12.140625c-5.234375 0-9.480469 4.246094-9.480469 9.480469v284.5c0 5.238281 4.246094 9.484375 9.480469 9.484375h284.5c5.238281 0 9.484375-4.246094 9.484375-9.484375v-284.5c0-5.234375-4.246094-9.480469-9.484375-9.480469h-27.242188l59.429688-173.660156 17.941406 6.136719-49.132812 143.566406 17.972656 6.144531 52.15625-152.539062c1.695312-4.953125-.945312-10.347656-5.902344-12.042969 0 0 0 0-.003906 0l-26.894531-9.171875 3.074219-8.960938c6.355468-19.960937-4.671876-41.296874-24.632813-47.65625-19.335937-6.160156-40.097656 3.992188-47.109375 23.039063l-64.488281 188.320313v-219.226563c0-5.238281-4.246094-9.484375-9.484375-9.484375zm-9.480469 18.964844v18.96875h-18.96875v18.964844h18.96875v18.96875h-37.933594v18.964843h37.933594v18.964844h-18.96875v18.96875h18.96875v18.964844h-37.933594v18.96875h37.933594v18.964843h-18.96875v18.96875h18.96875v18.964844h-37.933594v18.964844h37.933594v18.96875h-56.902344v-246.566406zm-79.425781 246.570312h-19.789063l-56.191406-189.460937 18.191406-5.394531zm-96.964844-226.757812 23.914062 16.632812-34.859374 10.347656zm-15.410156 48.082031 18.253906-5.398437 54.558594 184.074218h-19.792969zm296.117187 463.175781h-265.535156v-265.535156h265.535156zm-77.898437-284.5 13.53125-39.546875 35.914062 12.273438-9.359375 27.273437zm55.5625-45.21875-35.894532-12.28125 46.0625-134.578125 35.875 12.273438zm43.453125-185.589844c9.902343 3.390626 15.1875 14.164063 11.808593 24.070313l-3.074218 8.980469-35.882813-12.273438 3.070313-8.96875c3.390625-9.910156 14.167968-15.195312 24.078125-11.808594zm0 0"/></svg>